<?xml version="1.0" encoding="UTF-8"?>
<svg width="200px" height="178px" viewBox="0 0 200 178" version="1.1" xmlns="http://www.w3.org/2000/svg" xmlns:xlink="http://www.w3.org/1999/xlink">
    <!-- Generator: Sketch 52.3 (67297) - http://www.bohemiancoding.com/sketch -->
    <title>logo-loading</title>
    <desc>Created with Sketch.</desc>
    <defs>
        <linearGradient x1="76.5187841%" y1="90.6960964%" x2="-83.3872966%" y2="-149.621735%" id="linearGradient-1">
            <stop stop-color="#5789FF" stop-opacity="0" offset="0%"></stop>
            <stop stop-color="#5789FF" offset="100%"></stop>
        </linearGradient>
    </defs>
    <g id="logo-loading" stroke="none" stroke-width="1" fill="none" fill-rule="evenodd">
        <g id="Group-2" transform="translate(15.000000, 31.000000)"></g>
        <path d="M17.599999,143.043468 L184.799989,143.043468 L184.799989,150.713033 L17.599999,150.713033 L17.599999,143.043468 Z M67.9359981,58.568687 C67.9359981,55.0918003 66.8323425,52.2796548 64.6249983,50.1321659 C62.4176541,47.9846771 58.8500234,46.9109488 53.9219992,46.9109488 C51.0473183,46.9109488 48.5833432,47.396683 46.5299997,48.3681661 C44.4766563,49.3396491 42.9110054,50.5412022 41.8330001,51.9728614 C40.7549948,53.4045207 40.2160002,54.7338986 40.2160002,55.961035 L40.2160002,57.1881654 L18.5020019,57.1881654 C18.2966675,55.9610289 18.1940019,55.0406904 18.1940019,54.4271221 C18.1940019,50.0298831 19.6569872,46.0928793 22.5830016,42.6159926 C25.509016,39.1391059 29.5899748,36.4292202 34.8260006,34.4862541 C40.0620264,32.543288 46.0679659,31.5718195 52.8439992,31.5718195 L56.077999,31.5718195 C67.1660536,31.5718195 75.5846354,33.7448411 81.3339971,38.0909495 C87.0833587,42.4370578 89.9579964,48.3936934 89.9579964,55.961035 L89.9579964,92.1613801 C89.9579964,94.0020848 90.3943253,95.3825926 91.2669963,96.302945 C92.1396673,97.2232973 93.19199,97.6834666 94.4239961,97.6834666 C95.4506678,97.6834666 96.5799897,97.4789469 97.8119958,97.0699015 C99.0440019,96.660856 100.019325,96.3029465 100.737996,95.9961624 L100.737996,109.801379 C96.9393102,111.948868 92.4220224,113.022596 87.1859966,113.022596 C81.5393021,113.022596 77.2273456,111.872173 74.2499976,109.571292 C71.2726496,107.270411 69.5273339,104.023661 69.013998,99.8309447 C61.827296,108.625423 52.9980516,113.022596 42.526,113.022596 C34.723295,113.022596 28.3066929,111.437568 23.2760015,108.267466 C18.2453101,105.097363 15.7300021,99.0640327 15.7300021,90.1672933 C15.7300021,82.9067358 17.8089811,77.3591395 21.9670016,73.524338 C26.1250221,69.6895366 31.8999639,67.1074756 39.2920003,65.7780778 C46.6840367,64.4486799 56.2319405,63.783991 67.9359981,63.783991 L67.9359981,58.568687 Z M67.9359981,76.362077 C58.1826167,76.362077 50.9190233,77.3079805 46.1449998,79.1998159 C41.3709763,81.0916513 38.9840003,84.1850114 38.9840003,88.4799891 C38.9840003,91.8546144 39.9336574,94.2321556 41.8330001,95.6126842 C43.7323428,96.9932127 46.6326469,97.6834666 50.5339994,97.6834666 C53.2033459,97.6834666 55.8726523,96.9676477 58.5419988,95.5359885 C61.2113453,94.1043293 63.4443228,92.0591325 65.2409983,89.4003368 C67.0376738,86.7415411 67.9359981,83.7760058 67.9359981,80.5036419 L67.9359981,76.362077 Z M131.075993,44.6100794 C137.544025,35.9178627 145.911274,31.5718195 156.177991,31.5718195 C164.186031,31.5718195 170.782298,33.7192761 175.96699,38.0142538 C181.151682,42.3092315 183.743989,48.5470817 183.743989,56.7279915 L183.743989,111.488683 L161.259991,111.488683 L161.259991,61.6365129 C161.259991,57.6483193 160.105003,54.3504395 157.794991,51.7427745 C155.48498,49.1351095 152.533343,47.8312965 148.939992,47.8312965 C144.935972,47.8312965 141.496673,49.3396292 138.621993,52.3563397 C135.747312,55.3730502 134.309993,59.0288394 134.309993,63.3238171 L134.309993,111.488683 L111.825995,111.488683 L111.825995,33.1057324 L128.611993,33.1057324 L131.075993,44.6100794 Z" id="Combined-Shape" fill="url(#linearGradient-1)" fill-rule="nonzero"></path>
    </g>
</svg>