<?xml version="1.0" encoding="UTF-8"?>
<svg width="99px" height="14px" viewBox="0 0 99 14" version="1.1" xmlns="http://www.w3.org/2000/svg" xmlns:xlink="http://www.w3.org/1999/xlink">
    <!-- Generator: Sketch 52.3 (67297) - http://www.bohemiancoding.com/sketch -->
    <title>annie taran</title>
    <desc>Created with Sketch.</desc>
    <g id="Symbols" stroke="none" stroke-width="1" fill="none" fill-rule="evenodd">
        <g id="navbar" transform="translate(1.000000, -5.000000)" fill="#111111">
            <path d="M5.822,11.79 C5.822,11.381998 5.69300129,11.0520013 5.435,10.8 C5.17699871,10.5479987 4.76000288,10.422 4.184,10.422 C3.84799832,10.422 3.5600012,10.4789994 3.32,10.593 C3.0799988,10.7070006 2.89700063,10.8479992 2.771,11.016 C2.64499937,11.1840008 2.582,11.3399993 2.582,11.484 L2.582,11.628 L0.044,11.628 C0.01999988,11.4839993 0.008,11.3760004 0.008,11.304 C0.008,10.7879974 0.17899829,10.326002 0.521,9.918 C0.86300171,9.50999796 1.33999694,9.19200114 1.952,8.964 C2.56400306,8.73599886 3.26599604,8.622 4.058,8.622 L4.436,8.622 C5.73200648,8.622 6.71599664,8.87699745 7.388,9.387 C8.06000336,9.89700255 8.396,10.5959956 8.396,11.484 L8.396,15.732 C8.396,15.9480011 8.44699949,16.1099995 8.549,16.218 C8.65100051,16.3260005 8.77399928,16.38 8.918,16.38 C9.0380006,16.38 9.16999928,16.3560002 9.314,16.308 C9.45800072,16.2599998 9.57199958,16.2180002 9.656,16.182 L9.656,17.802 C9.21199778,18.0540013 8.68400306,18.18 8.072,18.18 C7.4119967,18.18 6.90800174,18.0450013 6.56,17.775 C6.21199826,17.5049987 6.0080003,17.1240025 5.948,16.632 C5.1079958,17.6640052 4.07600612,18.18 2.852,18.18 C1.93999544,18.18 1.19000294,17.9940019 0.602,17.622 C0.01399706,17.2499981 -0.28,16.5420052 -0.28,15.498 C-0.28,14.6459957 -0.03700243,13.9950022 0.449,13.545 C0.93500243,13.0949977 1.60999568,12.7920008 2.474,12.636 C3.33800432,12.4799992 4.45399316,12.402 5.822,12.402 L5.822,11.79 Z M5.822,13.878 C4.6819943,13.878 3.83300279,13.9889989 3.275,14.211 C2.71699721,14.4330011 2.438,14.7959975 2.438,15.3 C2.438,15.696002 2.54899889,15.9749992 2.771,16.137 C2.99300111,16.2990008 3.33199772,16.38 3.788,16.38 C4.10000156,16.38 4.41199844,16.2960008 4.724,16.128 C5.03600156,15.9599992 5.29699895,15.7200016 5.507,15.408 C5.71700105,15.0959984 5.822,14.7480019 5.822,14.364 L5.822,13.878 Z M13.202,10.152 C13.9580038,9.1319949 14.935994,8.622 16.136,8.622 C17.0720047,8.622 17.842997,8.87399748 18.449,9.378 C19.055003,9.88200252 19.358,10.6139952 19.358,11.574 L19.358,18 L16.73,18 L16.73,12.15 C16.73,11.6819977 16.5950014,11.2950015 16.325,10.989 C16.0549987,10.6829985 15.7100021,10.53 15.29,10.53 C14.8219977,10.53 14.4200017,10.7069982 14.084,11.061 C13.7479983,11.4150018 13.58,11.8439975 13.58,12.348 L13.58,18 L10.952,18 L10.952,8.802 L12.914,8.802 L13.202,10.152 Z M23.948,10.152 C24.7040038,9.1319949 25.681994,8.622 26.882,8.622 C27.8180047,8.622 28.588997,8.87399748 29.195,9.378 C29.801003,9.88200252 30.104,10.6139952 30.104,11.574 L30.104,18 L27.476,18 L27.476,12.15 C27.476,11.6819977 27.3410013,11.2950015 27.071,10.989 C26.8009987,10.6829985 26.4560021,10.53 26.036,10.53 C25.5679977,10.53 25.1660017,10.7069982 24.83,11.061 C24.4939983,11.4150018 24.326,11.8439975 24.326,12.348 L24.326,18 L21.698,18 L21.698,8.802 L23.66,8.802 L23.948,10.152 Z M32.426,5.04 L35.09,5.04 L35.09,7.11 L32.426,7.11 L32.426,5.04 Z M32.444,18 L32.444,8.802 L35.072,8.802 L35.072,18 L32.444,18 Z M45.98,14.562 C45.98,15.366004 45.7880019,16.0409973 45.404,16.587 C45.0199981,17.1330027 44.5130032,17.5349987 43.883,17.793 C43.2529969,18.0510013 42.5660037,18.18 41.822,18.18 L41.534,18.18 C40.6819957,18.18 39.9140034,18.0000018 39.23,17.64 C38.5459966,17.2799982 38.0090019,16.7610034 37.619,16.083 C37.2289981,15.4049966 37.034,14.5980047 37.034,13.662 L37.034,13.14 C37.034,12.2159954 37.231998,11.4120034 37.628,10.728 C38.024002,10.0439966 38.5609966,9.5220018 39.239,9.162 C39.9170034,8.8019982 40.6819957,8.622 41.534,8.622 L41.822,8.622 C42.5660037,8.622 43.2559968,8.77499847 43.892,9.081 C44.5280032,9.38700153 45.0379981,9.83099709 45.422,10.413 C45.8060019,10.9950029 45.998,11.681996 45.998,12.474 L45.998,13.842 L39.698,13.842 L39.698,14.274 C39.698,14.874003 39.8749982,15.374998 40.229,15.777 C40.5830018,16.179002 41.0659969,16.38 41.678,16.38 C42.2300028,16.38 42.6649984,16.2270015 42.983,15.921 C43.3010016,15.6149985 43.46,15.162003 43.46,14.562 L45.98,14.562 Z M41.552,10.422 C41.0239974,10.422 40.5950017,10.6079981 40.265,10.98 C39.9349984,11.3520019 39.7460002,11.8259971 39.698,12.402 L43.334,12.402 C43.334,11.7899969 43.1930014,11.3070018 42.911,10.953 C42.6289986,10.5989982 42.1760031,10.422 41.552,10.422 Z M56.906,17.838 C56.6659988,17.9340005 56.351002,18.0149997 55.961,18.081 C55.5709981,18.1470003 55.2260015,18.18 54.926,18.18 C54.0019954,18.18 53.3060023,17.982002 52.838,17.586 C52.3699977,17.189998 52.136,16.5300046 52.136,15.606 L52.136,10.602 L51.128,10.602 L51.128,8.802 L52.226,8.802 L53.144,5.868 L54.764,5.868 L54.764,8.802 L56.906,8.802 L56.906,10.602 L54.764,10.602 L54.764,15.156 C54.764,15.6360024 54.8569991,15.9599992 55.043,16.128 C55.2290009,16.2960008 55.4779984,16.38 55.79,16.38 C55.9340007,16.38 56.1199989,16.3560002 56.348,16.308 C56.5760011,16.2599998 56.7619993,16.2060003 56.906,16.146 L56.906,17.838 Z M64.232,11.79 C64.232,11.381998 64.1030013,11.0520013 63.845,10.8 C63.5869987,10.5479987 63.1700029,10.422 62.594,10.422 C62.2579983,10.422 61.9700012,10.4789994 61.73,10.593 C61.4899988,10.7070006 61.3070006,10.8479992 61.181,11.016 C61.0549994,11.1840008 60.992,11.3399993 60.992,11.484 L60.992,11.628 L58.454,11.628 C58.4299999,11.4839993 58.418,11.3760004 58.418,11.304 C58.418,10.7879974 58.5889983,10.326002 58.931,9.918 C59.2730017,9.50999796 59.7499969,9.19200114 60.362,8.964 C60.9740031,8.73599886 61.675996,8.622 62.468,8.622 L62.846,8.622 C64.1420065,8.622 65.1259966,8.87699745 65.798,9.387 C66.4700034,9.89700255 66.806,10.5959956 66.806,11.484 L66.806,15.732 C66.806,15.9480011 66.8569995,16.1099995 66.959,16.218 C67.0610005,16.3260005 67.1839993,16.38 67.328,16.38 C67.4480006,16.38 67.5799993,16.3560002 67.724,16.308 C67.8680007,16.2599998 67.9819996,16.2180002 68.066,16.182 L68.066,17.802 C67.6219978,18.0540013 67.0940031,18.18 66.482,18.18 C65.8219967,18.18 65.3180017,18.0450013 64.97,17.775 C64.6219983,17.5049987 64.4180003,17.1240025 64.358,16.632 C63.5179958,17.6640052 62.4860061,18.18 61.262,18.18 C60.3499954,18.18 59.6000029,17.9940019 59.012,17.622 C58.4239971,17.2499981 58.13,16.5420052 58.13,15.498 C58.13,14.6459957 58.3729976,13.9950022 58.859,13.545 C59.3450024,13.0949977 60.0199957,12.7920008 60.884,12.636 C61.7480043,12.4799992 62.8639932,12.402 64.232,12.402 L64.232,11.79 Z M64.232,13.878 C63.0919943,13.878 62.2430028,13.9889989 61.685,14.211 C61.1269972,14.4330011 60.848,14.7959975 60.848,15.3 C60.848,15.696002 60.9589989,15.9749992 61.181,16.137 C61.4030011,16.2990008 61.7419977,16.38 62.198,16.38 C62.5100016,16.38 62.8219984,16.2960008 63.134,16.128 C63.4460016,15.9599992 63.7069989,15.7200016 63.917,15.408 C64.1270011,15.0959984 64.232,14.7480019 64.232,14.364 L64.232,13.878 Z M74.528,11.952 C74.528,11.5799981 74.426001,11.2590013 74.222,10.989 C74.017999,10.7189986 73.6940022,10.584 73.25,10.584 C72.8299979,10.584 72.5090011,10.7489984 72.287,11.079 C72.0649989,11.4090017 71.954,11.8199975 71.954,12.312 L71.954,18 L69.362,18 L69.362,8.802 L71.306,8.802 L71.63,10.152 C71.6780002,10.0199993 71.800999,9.8340012 71.999,9.594 C72.197001,9.3539988 72.4849981,9.13200102 72.863,8.928 C73.2410019,8.72399898 73.6879974,8.622 74.204,8.622 C75.0320041,8.622 75.6709977,8.87999742 76.121,9.396 C76.5710022,9.91200258 76.796,10.5959957 76.796,11.448 C76.796,11.6280009 76.7870001,11.8079991 76.769,11.988 C76.7509999,12.1680009 76.7360001,12.2939996 76.724,12.366 L74.528,12.366 L74.528,11.952 Z M83.798,11.79 C83.798,11.381998 83.6690013,11.0520013 83.411,10.8 C83.1529987,10.5479987 82.7360029,10.422 82.16,10.422 C81.8239983,10.422 81.5360012,10.4789994 81.296,10.593 C81.0559988,10.7070006 80.8730006,10.8479992 80.747,11.016 C80.6209994,11.1840008 80.558,11.3399993 80.558,11.484 L80.558,11.628 L78.02,11.628 C77.9959999,11.4839993 77.984,11.3760004 77.984,11.304 C77.984,10.7879974 78.1549983,10.326002 78.497,9.918 C78.8390017,9.50999796 79.3159969,9.19200114 79.928,8.964 C80.5400031,8.73599886 81.241996,8.622 82.034,8.622 L82.412,8.622 C83.7080065,8.622 84.6919966,8.87699745 85.364,9.387 C86.0360034,9.89700255 86.372,10.5959956 86.372,11.484 L86.372,15.732 C86.372,15.9480011 86.4229995,16.1099995 86.525,16.218 C86.6270005,16.3260005 86.7499993,16.38 86.894,16.38 C87.0140006,16.38 87.1459993,16.3560002 87.29,16.308 C87.4340007,16.2599998 87.5479996,16.2180002 87.632,16.182 L87.632,17.802 C87.1879978,18.0540013 86.6600031,18.18 86.048,18.18 C85.3879967,18.18 84.8840017,18.0450013 84.536,17.775 C84.1879983,17.5049987 83.9840003,17.1240025 83.924,16.632 C83.0839958,17.6640052 82.0520061,18.18 80.828,18.18 C79.9159954,18.18 79.1660029,17.9940019 78.578,17.622 C77.9899971,17.2499981 77.696,16.5420052 77.696,15.498 C77.696,14.6459957 77.9389976,13.9950022 78.425,13.545 C78.9110024,13.0949977 79.5859957,12.7920008 80.45,12.636 C81.3140043,12.4799992 82.4299932,12.402 83.798,12.402 L83.798,11.79 Z M83.798,13.878 C82.6579943,13.878 81.8090028,13.9889989 81.251,14.211 C80.6929972,14.4330011 80.414,14.7959975 80.414,15.3 C80.414,15.696002 80.5249989,15.9749992 80.747,16.137 C80.9690011,16.2990008 81.3079977,16.38 81.764,16.38 C82.0760016,16.38 82.3879984,16.2960008 82.7,16.128 C83.0120016,15.9599992 83.2729989,15.7200016 83.483,15.408 C83.693001,15.0959984 83.798,14.7480019 83.798,14.364 L83.798,13.878 Z M91.178,10.152 C91.9340038,9.1319949 92.911994,8.622 94.112,8.622 C95.0480047,8.622 95.818997,8.87399748 96.425,9.378 C97.031003,9.88200252 97.334,10.6139952 97.334,11.574 L97.334,18 L94.706,18 L94.706,12.15 C94.706,11.6819977 94.5710013,11.2950015 94.301,10.989 C94.0309987,10.6829985 93.6860021,10.53 93.266,10.53 C92.7979977,10.53 92.3960017,10.7069982 92.06,11.061 C91.7239983,11.4150018 91.556,11.8439975 91.556,12.348 L91.556,18 L88.928,18 L88.928,8.802 L90.89,8.802 L91.178,10.152 Z" id="annie-taran"></path>
        </g>
    </g>
</svg>